<svg width="50" height="32" viewBox="0 0 50 32" fill="none" xmlns="http://www.w3.org/2000/svg">
<g clip-path="url(#clip0_2709_219)">
<path d="M0.00195312 31.8H49.9983V0H0.00195312V31.8Z" fill="black"/>
<path d="M0.580566 31.2297H49.4652V0.578857H0.580566V31.2297Z" fill="white"/>
<path d="M11.3634 17.5571L12.3091 18.6433L13.2864 17.5643H14.0693V17.8977L12.8447 19.2543L14.0693 20.7047V17.5643H16.2797C16.6978 17.5643 17.3108 17.7579 17.3108 18.6262C17.3108 19.8443 16.5042 19.8587 16.0625 19.8587H14.9146V21.0381H13.2785L12.279 19.8823L11.2551 21.0295H8.0019V17.5564H11.3634V17.5571V17.5571ZM21.3778 17.5571H24.1657V18.3059H22.231V18.9563H24.1119V19.6152H22.231V20.303H24.1657V21.0302H21.3778V17.5571V17.5571ZM18.5676 21.0387H17.7144V17.565H19.932C20.3514 17.565 20.9558 17.7514 20.9558 18.4949C20.9558 18.915 20.8318 19.2241 20.3665 19.4571C20.7694 19.5037 20.925 19.7675 20.925 20.3253L20.9558 21.0387H20.1256L20.1026 20.4021C20.0954 20.1081 19.9786 19.8134 19.6846 19.8134H18.5676V21.0387V21.0387ZM29.5198 18.911C30.5692 18.9635 30.6558 19.4879 30.6558 20.0458C30.6558 20.6968 30.1209 21.046 29.5624 21.046H27.7714V20.3024H29.1673C29.4043 20.3024 29.7567 20.3024 29.7567 19.9677C29.7567 19.8088 29.6943 19.7084 29.4423 19.6809C29.2465 19.6618 29.0502 19.6483 28.8536 19.6402C27.9066 19.6152 27.6867 19.1447 27.6867 18.5711C27.6867 17.92 28.1442 17.5637 28.7027 17.5637H30.4937V18.3086H29.1831C28.8851 18.3125 28.5629 18.2731 28.5629 18.6111C28.5629 18.8237 28.7224 18.8664 28.9232 18.8867C28.9928 18.8874 29.4581 18.911 29.5198 18.911V18.911ZM26.3249 18.911C27.3737 18.9635 27.461 19.4879 27.461 20.0458C27.461 20.6968 26.9254 21.046 26.3676 21.046H24.5759V20.3024H25.9718C26.2081 20.3024 26.5619 20.3024 26.5619 19.9677C26.5619 19.8088 26.4995 19.7084 26.2475 19.6809C26.1346 19.6651 25.7198 19.6415 25.6588 19.6402C24.7118 19.6152 24.4919 19.1447 24.4919 18.5711C24.4919 17.92 24.9493 17.5637 25.5072 17.5637H27.2989V18.3086H25.9883C25.6896 18.3125 25.3681 18.2731 25.3681 18.6111C25.3681 18.8237 25.5269 18.8664 25.729 18.8867C25.7979 18.8874 26.2632 18.911 26.3249 18.911V18.911ZM15.0853 15.0678H14.2321V11.594H16.4497C16.8684 11.594 17.4742 11.7804 17.4742 12.524C17.4742 12.9434 17.3501 13.2538 16.8848 13.4861C17.2878 13.5327 17.4433 13.7965 17.4433 14.3544L17.4742 15.0678H16.6446L16.621 14.4318C16.6131 14.1372 16.4976 13.8431 16.2023 13.8431H15.0859V15.0678H15.0853V15.0678ZM17.9086 15.0678H18.7612V11.5901H17.9086V15.0678ZM10.9559 11.594H13.7431V12.3422H11.8104V12.9939H13.69V13.6535H11.8104V14.3393H13.7431V15.0678H10.9559V11.594V11.594ZM4.73094 15.0678H6.44846V12.4899L7.58778 15.0678H8.36352L9.52975 12.5325V15.0678H10.3823V11.594H9.02178L7.97499 13.9245L6.93214 11.594H5.59462V14.9398L4.10549 11.594H2.97798L1.45801 15.0678H2.35778L2.69053 14.2927H4.39229L4.73094 15.0678V15.0678ZM23.6689 14.2947H21.9678L21.6344 15.0698H20.5095C19.5638 15.0698 19.1444 14.2769 19.1648 13.3155C19.1937 11.8887 20.037 11.5921 20.4249 11.5921H21.5379V12.3481H21.0109C20.4446 12.3481 20.0029 12.4072 20.0029 13.221V13.473C20.0068 14.0853 20.3277 14.2304 20.5332 14.273C20.5837 14.2848 20.6769 14.2894 20.711 14.2868L21.0798 14.2848L22.2546 11.594H23.3834L24.8371 14.8545V11.5921H26.0965L27.5351 13.9974V11.5921H28.3877V15.0698H27.2247L25.6896 12.526V15.0698H24.0069L23.6689 14.2947V14.2947Z" fill="#00ACEC"/>
<path d="M30.5011 17.0229V1.56067H1.53174V13.517L2.6179 11.0677H4.4634L5.0685 12.5247V11.0677H7.3163L7.99885 12.5103L8.66564 11.0677H16.5904C16.9001 11.0677 17.3189 11.1767 17.5059 11.5173V11.0677H19.165V11.5947C19.3822 11.3007 19.7078 11.0677 20.3431 11.0677H23.7243L24.3445 12.4781V11.0677H26.3455L27.0582 12.293V11.0677H28.888V15.5948H26.9191L26.0968 14.2619V15.5948H23.6002L23.1973 14.7108H22.4058L22.0337 15.5948H20.4671C20.1258 15.5646 19.3356 15.4242 19.165 14.8978V15.5948H16.1566V14.6032C16.1566 14.4627 16.0325 14.2927 15.8619 14.2927H15.5364V15.5948H9.13095V14.5717L8.65054 15.5948H7.3478L6.85165 14.5559V15.5948H4.29276L3.95149 14.7889H3.12915L2.77279 15.5948H1.53174V30.219H30.5011V21.256C30.3463 21.4273 30.0982 21.5664 29.7261 21.5664H27.3057V21.2252C27.1199 21.4273 26.8568 21.5664 26.4374 21.5664H19.6146V20.6207C19.5988 20.496 19.6612 20.2328 19.3199 20.2328H19.041V21.5664H17.2263V20.0301C17.0399 20.3418 16.6376 20.3562 16.3738 20.372H15.4117V21.5664H12.9926L12.2943 20.7133L11.55 21.5664H7.441V17.0229H11.6124L12.3409 17.8446L13.0858 17.0229H16.3889C16.6212 17.0374 17.0629 17.1463 17.2263 17.3944V17.0229H20.049C20.2971 17.0229 20.7775 17.1306 20.9797 17.4561V17.0229H24.5151V17.4252C24.7008 17.1778 24.9962 17.0229 25.4451 17.0229H27.7093V17.4108C27.8799 17.1621 28.3301 17.0229 28.594 17.0229H30.5011V17.0229ZM38.4738 16.6278C38.4738 17.2087 36.2627 16.5681 36.2627 17.9805C36.2627 18.6256 36.7845 18.9176 37.3712 18.9176C37.8339 18.9176 38.189 18.8218 38.5394 18.4956L38.6654 18.8277H39.7805C39.7168 18.707 39.707 18.5495 39.707 18.3723V16.9192C39.707 16.1776 39.6177 15.6322 38.1476 15.6322C36.9203 15.6322 36.4518 16.0175 36.4518 16.6751H37.6377C37.6672 16.4086 37.8989 16.3738 38.0708 16.3738C38.2021 16.3738 38.4738 16.4034 38.4738 16.6278V16.6278ZM44.8897 18.409V18.8244H45.9975V14.5546H44.7657V16.0313C44.5038 15.7228 44.2314 15.6283 43.8403 15.6283C43.0987 15.6283 42.5238 16.2977 42.5238 17.3301C42.5238 18.2075 42.9983 18.913 43.9348 18.913C44.3332 18.913 44.5996 18.789 44.8897 18.409V18.409ZM42.2042 16.6974V15.646C42.151 15.6401 42.0972 15.6283 42.0434 15.6283C41.5643 15.6283 41.2611 15.8593 41.0891 16.3463H41.0773V15.7176H39.957V18.8238H41.1895V17.6005C41.1895 16.9304 41.4448 16.6928 41.9489 16.6928L42.2042 16.6974V16.6974ZM34.8438 16.1789C34.8018 15.7353 34.5229 15.48 34.0845 15.48C33.5923 15.48 33.2956 15.9013 33.2956 16.725C33.2956 17.3242 33.4262 17.8866 34.137 17.8866C34.5885 17.8866 34.8018 17.5736 34.8557 17.164H36.2011C36.0777 18.2666 35.2881 18.9295 34.1626 18.9295C32.7516 18.9295 31.8971 18.0658 31.8971 16.6771C31.8971 15.2956 32.8336 14.4358 34.0261 14.4358C35.3301 14.4358 36.0599 15.0823 36.1728 16.1783H34.8438V16.1789V16.1789Z" fill="#00ACEC"/>
<path d="M14.9156 19.1467H15.9781C16.3266 19.1467 16.4507 18.9446 16.4507 18.7122C16.4507 18.5416 16.3385 18.3139 15.9814 18.3139H14.9156V19.1467ZM10.7902 18.306H8.85606V18.9564H10.7357V19.6153H8.85606V20.3031H10.8217L11.7602 19.255L10.9299 18.3093L10.7902 18.306ZM18.5679 19.1008H19.6304C19.9789 19.1008 20.1029 18.9452 20.1029 18.7122C20.1029 18.5416 19.9907 18.3139 19.6337 18.3139H18.5679V19.1008V19.1008ZM15.0856 13.1298H16.1481C16.4973 13.1298 16.6207 12.9749 16.6207 12.7419C16.6207 12.572 16.5084 12.3423 16.1514 12.3423H15.0856V13.1298V13.1298ZM4.06316 13.5452H3.0249L3.53419 12.3304L4.06316 13.5452ZM22.8095 12.3324L22.3015 13.5466H23.3437L22.8095 12.3324Z" fill="white"/>
<path d="M48.2917 19.7761L37.856 30.2112H39.3379L48.2917 21.258V19.7761Z" fill="#3B4095"/>
<path d="M48.2919 22.6959L40.7773 30.2111H42.2579L48.2919 24.1785V22.6959Z" fill="#00ACEC"/>
<path d="M48.2918 25.6165L43.6958 30.2112H45.179L48.2918 27.0977V25.6165Z" fill="#6CB35E"/>
<path d="M31.561 28.5677C31.5615 28.351 31.6046 28.1366 31.688 27.9365C31.7713 27.7365 31.8933 27.5549 32.0469 27.402C32.2005 27.2492 32.3827 27.1281 32.5831 27.0457C32.7835 26.9633 32.9982 26.9212 33.2149 26.9218C33.4311 26.9216 33.6452 26.964 33.845 27.0467C34.0448 27.1294 34.2263 27.2506 34.3792 27.4035C34.532 27.5563 34.6533 27.7379 34.7359 27.9376C34.8186 28.1374 34.861 28.3515 34.8609 28.5677C34.8618 28.7846 34.82 28.9994 34.7377 29.2C34.6554 29.4007 34.5343 29.583 34.3814 29.7368C34.2285 29.8905 34.0467 30.0125 33.8466 30.0958C33.6464 30.1791 33.4317 30.2221 33.2149 30.2223C32.9976 30.2225 32.7823 30.1799 32.5815 30.0968C32.3807 30.0138 32.1983 29.8919 32.0446 29.7382C31.891 29.5845 31.7692 29.402 31.6862 29.2012C31.6032 29.0003 31.5607 28.7851 31.561 28.5677V28.5677Z" fill="#00ACEC"/>
<path d="M34.6619 28.5678C34.6619 28.3778 34.6246 28.1896 34.5519 28.014C34.4792 27.8384 34.3726 27.6789 34.2382 27.5446C34.1038 27.4102 33.9442 27.3037 33.7686 27.2311C33.593 27.1585 33.4048 27.1212 33.2147 27.1213C33.0244 27.1208 32.8359 27.1579 32.6599 27.2303C32.4839 27.3028 32.3239 27.4092 32.1891 27.5436C32.0544 27.6779 31.9474 27.8376 31.8744 28.0133C31.8014 28.1891 31.7638 28.3775 31.7637 28.5678C31.7637 28.9521 31.9163 29.3207 32.1881 29.5925C32.4599 29.8642 32.8284 30.0169 33.2128 30.0169C33.5971 30.0169 33.9657 29.8642 34.2374 29.5925C34.5092 29.3207 34.6619 28.9521 34.6619 28.5678V28.5678Z" fill="white"/>
<path d="M34.0351 29.4925H33.768L33.2396 28.6413H32.8262V29.4925H32.6011V27.647H33.4044C33.5599 27.647 33.7155 27.6562 33.8539 27.7382C33.9924 27.8163 34.0607 27.9804 34.0607 28.1353C34.0607 28.4988 33.8067 28.6327 33.4779 28.6413L34.0351 29.4925V29.4925Z" fill="#00ACEC"/>
<path d="M33.1724 28.464C33.4316 28.464 33.8332 28.5074 33.8332 28.1306C33.8332 27.8458 33.5825 27.8117 33.3535 27.8117H32.8271V28.464H33.1724ZM38.4739 17.4521C38.4772 18.0336 38.2987 18.2173 37.8662 18.2173C37.6227 18.2173 37.4744 18.1104 37.4744 17.9568C37.475 17.5525 38.0716 17.6477 38.4739 17.4521V17.4521ZM44.8071 17.3005C44.8071 17.6615 44.6713 18.0231 44.244 18.0231C43.8417 18.0231 43.759 17.6444 43.759 17.3176C43.759 16.975 43.8712 16.5825 44.2808 16.5825C44.689 16.5825 44.8071 16.9559 44.8071 17.3005Z" fill="white"/>
</g>
<defs>
<clipPath id="clip0_2709_219">
<rect width="50" height="31.8" fill="white"/>
</clipPath>
</defs>
</svg>
