<svg width="50" height="24" viewBox="0 0 50 24" fill="none" xmlns="http://www.w3.org/2000/svg">
<g clip-path="url(#clip0_2709_390)">
<path d="M0.00634766 0H49.9939V23.4694H0.00634766V0Z" fill="black"/>
<path d="M10.3059 7.18934C10.787 7.03 11.3001 6.94502 11.8325 6.94502C14.1631 6.94502 16.1088 8.58938 16.5535 10.7755L19.8569 10.1063C19.1 6.39265 15.7945 3.5968 11.8325 3.5968C10.9238 3.5968 10.0536 3.74339 9.23682 4.01533L10.3059 7.18934Z" fill="#FFCB05"/>
<path d="M6.40798 17.8246L8.64233 15.3156C7.64596 14.4382 7.01735 13.1571 7.01735 11.7294C7.01735 10.3039 7.64596 9.02281 8.64233 8.14752L6.40798 5.63635C4.71458 7.12775 3.64551 9.30537 3.64551 11.7294C3.64551 14.1556 4.71458 16.3332 6.40798 17.8246" fill="#00A4E0"/>
<path d="M16.5535 12.6897C16.1067 14.8737 14.1631 16.5159 11.8347 16.5159C11.3001 16.5159 10.7848 16.4309 10.3059 16.2695L9.23682 19.4477C10.0536 19.7176 10.9259 19.8641 11.8347 19.8641C15.7923 19.8641 19.0958 17.0725 19.8569 13.3632L16.5535 12.6897Z" fill="#EF4123"/>
<path d="M22.7453 15.4197C22.6363 15.2455 22.4909 14.9672 22.4011 14.7611C21.8773 13.5544 21.8537 12.3052 22.2942 11.1069C22.7795 9.79188 23.7075 8.78699 24.907 8.27286C26.4144 7.62913 28.08 7.75448 29.5254 8.60641C30.4426 9.12903 31.0926 9.93634 31.5865 11.0793C31.6485 11.2259 31.7041 11.381 31.7597 11.5149L22.7453 15.4197ZM25.7558 10.2125C24.6846 10.6693 24.133 11.6678 24.2484 12.8363L28.7813 10.8966C28.0009 9.98733 26.9874 9.68565 25.7558 10.2125V10.2125ZM29.3458 14.4318C29.3436 14.4318 29.3436 14.4339 29.3436 14.4339L29.2495 14.3702C28.978 14.8057 28.5568 15.1605 28.0244 15.3899C27.0109 15.8276 26.0723 15.715 25.3966 15.1265L25.3346 15.22C25.3346 15.22 25.3346 15.2179 25.3325 15.2179L24.1822 16.9281C24.4687 17.1257 24.7744 17.2914 25.0951 17.4252C26.3652 17.95 27.6652 17.9245 28.9459 17.3721C29.8717 16.9727 30.5987 16.3651 31.0948 15.5939L29.3458 14.4318ZM34.9092 5.75745V15.2625L36.3973 15.8616L35.5528 17.8204L33.9107 17.1405C33.5429 16.9812 33.2906 16.739 33.1025 16.4649C32.9207 16.1866 32.786 15.8021 32.786 15.288V5.75745H34.9092ZM38.7621 12.8427C38.7621 12.0332 39.1235 11.3066 39.6922 10.8138L38.1656 9.12266C37.1307 10.0319 36.4786 11.3598 36.4786 12.8384C36.4765 14.3192 37.1286 15.6491 38.1613 16.5584L39.6858 14.8673C39.1192 14.3723 38.7621 13.65 38.7621 12.8427V12.8427ZM41.4733 15.5387C41.1739 15.5387 40.8832 15.4877 40.6137 15.3984L39.8846 17.5506C40.3828 17.7163 40.9152 17.8076 41.4711 17.8076C43.8872 17.8098 45.9035 16.1059 46.3717 13.8433L44.131 13.3887C43.8765 14.6187 42.784 15.5408 41.4733 15.5387V15.5387ZM41.4797 7.8777C40.9259 7.8777 40.3935 7.96693 39.8953 8.13052L40.618 10.2848C40.8896 10.1955 41.1782 10.1467 41.4776 10.1467C42.7904 10.1488 43.8851 11.0751 44.1331 12.3073L46.3739 11.8569C45.9142 9.59005 43.8979 7.87982 41.4797 7.8777V7.8777Z" fill="white"/>
</g>
<defs>
<clipPath id="clip0_2709_390">
<rect width="50" height="23.4694" fill="white"/>
</clipPath>
</defs>
</svg>
