<svg width="50" height="22" viewBox="0 0 50 22" fill="none" xmlns="http://www.w3.org/2000/svg">
<g clip-path="url(#clip0_2709_216)">
<path d="M13.7281 0H8.5472C6.2579 0.108239 4.38664 1.03028 3.84633 2.93167C3.56459 3.92328 3.40954 5.01234 3.18924 6.04027C2.06927 11.2669 1.07618 16.6377 0.00488281 21.76H40.3405C43.4588 21.76 45.6001 21.1011 46.1785 18.626C46.4473 17.4763 46.7048 16.1742 46.962 14.911C47.9645 9.98602 48.9679 5.06131 49.9949 0H13.7281Z" fill="#822124"/>
<path d="M13.3236 7.73358C13.5403 7.58432 13.8194 6.90457 13.5006 6.62156C13.3996 6.53197 13.2307 6.50596 12.9951 6.5458C12.7766 6.5827 12.6509 6.65699 12.5655 6.77327C12.4283 6.96021 12.3024 7.52417 12.5149 7.73368C12.722 7.9376 13.1858 7.82847 13.3236 7.73358V7.73358ZM10.2404 6.62156C10.0851 7.62888 9.91025 8.61657 9.73489 9.60377C8.60903 9.61564 7.45952 9.65931 6.3736 9.57845C6.5787 8.61264 6.7258 7.58874 6.92961 6.62156H5.71652C5.28229 9.08524 4.88721 11.5883 4.40234 14.0013H5.64076C5.83496 12.7636 6.0167 11.5131 6.27253 10.3367C7.32842 10.3107 8.59392 10.2654 9.6086 10.362C9.39938 11.585 9.14659 12.7642 8.95151 14.0013H10.1899C10.5879 11.5012 11.0071 9.02253 11.5042 6.62156H10.2404V6.62156ZM27.7545 8.74453C26.791 8.35534 26.0334 9.01302 25.6822 9.62908C25.7619 9.355 25.7946 9.03402 25.8592 8.74453H24.8988C24.664 10.5654 24.318 12.2748 23.989 14.0013H25.0758C25.2281 12.9765 25.2939 11.595 25.6317 10.6147C25.9018 9.83133 26.6085 9.16394 27.6283 9.52801C27.6425 9.23901 27.7252 9.01841 27.7545 8.74453V8.74453ZM28.361 12.763C28.2608 12.5041 28.235 12.0769 28.26 11.752C28.3161 11.0218 28.5823 10.1327 28.9929 9.73016C29.5596 9.17464 30.6784 9.26659 31.5708 9.57855C31.5984 9.27777 31.6589 9.00948 31.6972 8.71931C30.2337 8.48026 28.845 8.62903 28.1086 9.40171C27.3876 10.1581 26.9152 11.8966 27.2491 12.9905C27.6401 14.2705 29.3933 14.3401 30.8127 13.8498C30.8755 13.5925 30.9088 13.3057 30.9643 13.0411C30.1886 13.4439 28.7057 13.6533 28.361 12.763V12.763ZM40.5679 8.76975C39.6074 8.28949 38.8077 9.09535 38.4956 9.57845C38.5845 9.33057 38.5896 8.99859 38.6724 8.74443H37.7121C37.4531 10.5495 37.1411 12.3013 36.7771 14.0012H37.8891C37.8961 13.3045 38.033 12.7891 38.1417 12.1059C38.3741 10.6469 38.7154 9.04697 40.4165 9.52791C40.4727 9.28121 40.4962 9.00134 40.5679 8.76975ZM12.2116 8.74453C12.1822 8.74875 12.1841 8.78447 12.1863 8.82029C11.9469 10.6111 11.6227 12.3174 11.2765 14.0012H12.3632C12.6244 12.1984 12.9235 10.4337 13.2983 8.74443L12.2116 8.74453V8.74453ZM21.7648 8.64345C20.9795 8.704 20.3158 8.9299 19.8441 9.42693C19.2655 10.0364 18.797 11.3841 18.9343 12.6114C19.1302 14.3622 21.3101 14.2993 23.0537 13.875C23.0835 13.5677 23.1579 13.305 23.2054 13.0157C22.4871 13.2845 21.24 13.6596 20.5011 13.1927C19.9433 12.8399 19.94 11.947 20.122 11.1708C21.2939 11.1335 22.5119 11.1406 23.6854 11.1708C23.7598 10.6207 23.9728 10.0209 23.7865 9.47757C23.5408 8.76023 22.6605 8.57437 21.7648 8.64345ZM22.801 10.5642H20.2483C20.3291 9.97735 20.8571 9.33234 21.6889 9.30054C22.4718 9.27061 23.0324 9.58797 22.801 10.5642V10.5642ZM17.6453 8.74453C16.7256 8.39901 15.6046 8.81145 15.1186 9.20378C15.1203 9.22105 15.107 9.22341 15.0927 9.22469C15.1009 9.21772 15.1099 9.21075 15.1186 9.20378C15.1185 9.20234 15.1183 9.20089 15.1181 9.19947C15.1262 9.03078 15.1856 8.91322 15.1938 8.74453H14.2587C13.8691 11.3371 13.407 13.8571 12.9193 16.3517H14.006C14.1634 15.3802 14.2672 14.3552 14.4863 13.4453C14.7345 14.4023 16.355 14.2195 17.0389 13.8497C18.4497 13.0866 19.538 9.45539 17.6453 8.74453V8.74453ZM16.7861 13.0157C16.2047 13.6315 14.7753 13.6222 14.6631 12.586C14.6144 12.1352 14.7823 11.6625 14.8655 11.196C14.9494 10.7239 15.0099 10.271 15.0928 9.85655C15.6654 9.15727 17.3483 9.07278 17.519 10.2356C17.6671 11.2452 17.2675 12.5057 16.7861 13.0157V13.0157ZM44.6115 6.46995C44.5184 7.28659 44.3938 8.07194 44.2325 8.82029C41.5668 7.97646 39.932 9.9378 39.9615 12.3586C39.9672 12.8268 40.0478 13.291 40.3404 13.6222C40.8452 14.1928 42.2899 14.3295 43.0195 13.8496C43.1606 13.7568 43.305 13.5878 43.3985 13.4706C43.4689 13.3824 43.5804 13.1513 43.6007 13.2178C43.5623 13.4743 43.505 13.7119 43.4998 14.0012H44.4854C44.6755 11.2763 45.2627 8.94894 45.6985 6.46985H44.6116V6.46995H44.6115ZM42.1854 13.42C41.4538 13.4357 41.0901 12.9829 41.0733 12.2322C41.0441 10.9174 41.6209 9.45677 42.7919 9.32576C43.3372 9.26482 43.7319 9.39161 44.1314 9.52801C43.7646 11.0049 43.897 13.3833 42.1854 13.42V13.42ZM32.8091 8.74453C32.7556 9.04481 32.6734 9.31654 32.6069 9.60377C33.2482 9.44293 35.2451 8.94992 35.4375 9.80592C35.5014 10.0903 35.3912 10.3924 35.3111 10.6147C33.5055 10.4437 32.0337 10.7437 31.6465 12.03C31.3872 12.8916 31.6756 13.7394 32.2278 13.9761C33.2915 14.4318 34.5852 13.9098 35.0331 13.1927C34.9866 13.4409 34.9425 13.6918 34.9575 14.0013H35.8924C35.9025 13.1058 36.0328 12.3809 36.1705 11.575C36.2878 10.8888 36.5087 10.2094 36.4738 9.60377C36.3933 8.21668 34.0954 8.70734 32.8091 8.74453V8.74453ZM34.5782 12.9904C34.0181 13.5386 32.4461 13.6944 32.6069 12.3838C32.7404 11.2954 33.9256 11.0641 35.2098 11.2212C35.1145 11.8166 35.0049 12.5726 34.5782 12.9904V12.9904Z" fill="white"/>
</g>
<defs>
<clipPath id="clip0_2709_216">
<rect width="50" height="21.76" fill="white"/>
</clipPath>
</defs>
</svg>
